<?xml version="1.0" encoding="UTF-8"?> <svg xmlns="http://www.w3.org/2000/svg" width="141" height="44" viewBox="0 0 141 44" fill="none"><g clip-path="url(#clip0_3630_15257)"><rect width="44" height="44" fill="#FF0032"></rect><path d="M29.3131 3.35352V5.40624H33.7353V13.4372L33.7362 13.5694H36.212V5.40624H40.6341V3.35352H29.3131Z" fill="white"></path><path d="M13.3871 3.3841L10.1528 10.0993L6.9185 3.3841H3.38721V13.538H5.8629V6.27106L9.02433 12.4103H11.2814L14.4437 6.27106V13.538H16.9194V3.3841H13.3871Z" fill="white"></path><path d="M38.1522 37.2294C38.106 37.6044 37.9351 37.953 37.6671 38.2193C37.3887 38.4727 37.0464 38.6453 36.6772 38.7187C36.1377 38.8256 35.5884 38.8754 35.0384 38.8672C34.4528 38.8777 33.8695 38.7923 33.3115 38.6143C32.8541 38.4658 32.4596 38.1683 32.191 37.7693C31.9211 37.3698 31.7879 36.7929 31.7879 36.0594V35.0192C31.7879 34.2803 31.9239 33.7035 32.191 33.3039C32.459 32.9058 32.8525 32.6086 33.3088 32.4598C33.8668 32.2818 34.4502 32.1964 35.0358 32.2069C35.5857 32.1987 36.135 32.2485 36.6745 32.3554C37.0437 32.429 37.3859 32.6016 37.6644 32.8548C37.9324 33.1211 38.1032 33.4697 38.1494 33.8447H40.627C40.5822 33.0637 40.2843 32.3185 39.7783 31.7218C39.2794 31.1731 38.6335 30.7789 37.9173 30.5862C36.978 30.3383 36.0088 30.2223 35.0375 30.2414C33.8505 30.2414 32.821 30.4125 31.9777 30.749C31.1436 31.0701 30.4448 31.6676 29.998 32.4417C29.5615 33.1914 29.332 34.1921 29.3167 35.4187V35.5312V35.5366V35.649C29.332 36.8756 29.5615 37.8764 29.998 38.6261C30.4448 39.4002 31.1436 39.9976 31.9778 40.3188C32.8219 40.6554 33.8524 40.8263 35.0375 40.8263C36.0088 40.8459 36.9781 40.7299 37.9173 40.4817C38.6338 40.2895 39.2799 39.8953 39.7783 39.3459C40.2845 38.7493 40.5824 38.0041 40.627 37.223L38.1522 37.2294Z" fill="white"></path><path d="M60.36 15.2V20.76H62.62C62.74 19.6933 62.9933 18.7933 63.38 18.06C63.7667 17.3267 64.2867 16.7333 64.94 16.28C65.6067 15.8133 66.4 15.48 67.32 15.28C68.24 15.0667 69.28 14.96 70.44 14.96C71.72 14.96 72.8467 15.0867 73.82 15.34C74.8067 15.58 75.6333 15.98 76.3 16.54C76.9667 17.1 77.4667 17.84 77.8 18.76C78.1467 19.6667 78.32 20.78 78.32 22.1C78.32 23.4067 78.1467 24.5133 77.8 25.42C77.4667 26.3133 76.9667 27.0467 76.3 27.62C75.6333 28.1933 74.8067 28.6067 73.82 28.86C72.8467 29.1133 71.72 29.24 70.44 29.24C69.24 29.24 68.1667 29.1267 67.22 28.9C66.2733 28.6733 65.4667 28.3133 64.8 27.82C64.1467 27.3133 63.6333 26.6667 63.26 25.88C62.8867 25.08 62.66 24.1133 62.58 22.98H60.36V29H57.56V15.2H60.36ZM75.48 21.44C75.48 19.8933 75.06 18.7933 74.22 18.14C73.38 17.4733 72.12 17.14 70.44 17.14C68.76 17.14 67.5 17.4733 66.66 18.14C65.82 18.7933 65.4 19.9 65.4 21.46V22.68C65.4 24.2667 65.82 25.3933 66.66 26.06C67.5 26.7267 68.76 27.06 70.44 27.06C72.12 27.06 73.38 26.7267 74.22 26.06C75.06 25.3933 75.48 24.2667 75.48 22.68V21.44ZM89.4827 15.2C91.096 15.2 92.276 15.5933 93.0227 16.38C93.7827 17.1533 94.1627 18.2467 94.1627 19.66C94.1627 21.0867 93.7827 22.1933 93.0227 22.98C92.276 23.7667 91.096 24.16 89.4827 24.16H83.5827V29H80.7827V15.2H89.4827ZM91.3427 19.4C91.3427 18.8 91.1693 18.3133 90.8227 17.94C90.476 17.5667 89.9027 17.38 89.1027 17.38H83.5827V21.98H89.1027C89.9027 21.98 90.476 21.8 90.8227 21.44C91.1693 21.0667 91.3427 20.58 91.3427 19.98V19.4ZM108.17 15.2V17.38H99.1295V20.9H106.09V23H99.1295V26.82H108.25V29H96.3295V15.2H108.17ZM113.446 15.2V20.78H121.626V15.2H124.426V29H121.626V23.06H113.446V29H110.646V15.2H113.446ZM126.281 17.48V15.2H140.361V17.48H134.721V29H131.921V17.48H126.281Z" fill="black"></path></g><defs><clipPath id="clip0_3630_15257"><rect width="141" height="44" fill="white"></rect></clipPath></defs></svg> 